<?xml version="1.0" encoding="UTF-8" standalone="no"?><!DOCTYPE svg PUBLIC "-//W3C//DTD SVG 1.1//EN" "http://www.w3.org/Graphics/SVG/1.1/DTD/svg11.dtd"><svg width="100%" height="100%" viewBox="0 0 2518 680" version="1.1" xmlns="http://www.w3.org/2000/svg" xmlns:xlink="http://www.w3.org/1999/xlink" xml:space="preserve" xmlns:serif="http://www.serif.com/" style="fill-rule:evenodd;clip-rule:evenodd;stroke-linecap:round;"><g id="LOGO"><path d="M529.011,567.972l20.537,72.423l-196.652,-137.928l-194.186,133.872l74.172,-228.279l-194.185,-141.084l240.026,-0l74.173,-228.279l74.172,228.279l553.982,-0l-43.718,41.636" style="fill:none;stroke:#bb133e;stroke-width:18.77px;"/><path d="M337.477,524.1l7.696,-31.45l23.196,-109.139l13.885,-71.929c17.606,0.208 31.441,0.312 41.504,0.312c8.338,-0 21.097,-0.104 38.278,-0.312c0.062,8.926 0.217,15.699 0.465,20.318c0.248,4.619 1.177,13.649 2.786,27.09c1.609,13.441 2.79,25.066 3.544,34.875c0.754,9.808 1.612,26.597 2.574,50.365c6.357,-16.295 12.031,-30.307 17.021,-42.036c4.99,-11.729 11.053,-25.066 18.19,-40.012c7.136,-14.947 11.703,-24.729 13.698,-29.348c1.996,-4.619 4.819,-11.703 8.47,-21.252c14.296,0.208 28.32,0.312 42.07,0.312c9.358,-0 22.359,-0.104 39.001,-0.312c-6.426,34.979 -11.581,65.027 -15.466,90.145c-7.727,49.198 -12.809,83.035 -15.245,101.51c-0.506,3.84 -1.328,10.795 -2.464,20.863c-12.577,-0.208 -21.396,-0.312 -26.457,-0.312c-7.353,0 -16.391,0.104 -27.113,0.312c2.009,-9.342 5.911,-31.58 11.706,-66.714c5.795,-35.134 9.336,-57.579 10.623,-67.336c0.561,-4.255 1.245,-10.172 2.053,-17.749l-27.147,63.366l-38.63,88.433c-12.386,-0.208 -20.919,-0.312 -25.598,-0.312c-5.92,0 -15.006,0.104 -27.256,0.312l-6.368,-85.63l-4.321,-45.617c-0.151,-1.765 -0.295,-3.945 -0.431,-6.539c-0.136,-2.595 -0.299,-7.162 -0.491,-13.701l-9.296,43.126l-16.423,88.432l-3.062,19.929c-13.15,-0.208 -21.54,-0.312 -25.168,-0.312c-4.966,0 -13.574,0.104 -25.824,0.312Z" style="fill:#002147;fill-rule:nonzero;"/><path d="M611.486,524.1c16.493,-83.347 27.702,-147.491 33.627,-192.434l2.505,-20.084c16.697,0.208 27.864,0.312 33.503,0.312c2.579,-0 12.866,-0.104 30.861,-0.312c-4.805,23.354 -9.11,45.462 -12.914,66.324c-5.174,29.062 -9.715,56.23 -13.622,81.504c-3.908,25.274 -7.038,46.837 -9.392,64.69l-29.309,-0.312c-5.726,0 -17.479,0.104 -35.259,0.312Z" style="fill:#002147;fill-rule:nonzero;"/><path d="M711.464,524.1c5.235,-23.665 9.173,-42.608 11.816,-56.827c3.945,-21.174 8.711,-48.576 14.296,-82.205c4.259,-25.741 7.121,-44.164 8.585,-55.27l2.402,-18.216c11.128,0.312 20.749,0.467 28.863,0.467c7.829,0 18.122,-0.233 30.88,-0.7c12.758,-0.467 24.722,-0.701 35.891,-0.701c12.791,-0 23.898,0.83 33.322,2.491c9.423,1.661 17.969,5.086 25.637,10.276c7.668,5.189 13.764,11.988 18.288,20.395c4.524,8.407 7.524,18.242 8.998,29.503c1.475,11.262 1.426,22.861 -0.148,34.797c-1.546,11.729 -4.181,23.016 -7.902,33.863c-3.722,10.846 -8.211,20.629 -13.466,29.348c-5.256,8.718 -11.043,16.217 -17.362,22.497c-6.318,6.279 -13.305,11.651 -20.959,16.114c-5.69,3.321 -11.332,5.916 -16.926,7.784c-5.594,1.869 -13.097,3.374 -22.51,4.515c-10.477,1.246 -22.257,1.869 -35.339,1.869l-57.806,-0.467c-5.442,-0 -14.296,0.155 -26.56,0.467Zm68.103,-46.863c5.181,0.519 10.635,0.778 16.361,0.778c9.734,0 18.542,-0.934 26.423,-2.802c7.881,-1.869 15.112,-5.865 21.692,-11.988c6.581,-6.124 11.888,-13.987 15.922,-23.587c4.033,-9.601 6.714,-19.436 8.041,-29.504c1.629,-12.351 0.947,-22.757 -2.043,-31.216c-2.991,-8.459 -7.681,-14.349 -14.071,-17.671c-6.39,-3.321 -15.457,-4.982 -27.202,-4.982c-6.876,0 -15.033,0.312 -24.474,0.934l-20.649,120.038Z" style="fill:#002147;fill-rule:nonzero;"/><path d="M931.356,463.069c3.137,-15.105 5.755,-29.533 7.855,-43.282c13.504,0.415 26.273,0.623 38.304,0.623c12.223,-0 25.094,-0.208 38.613,-0.623c-2.918,13.438 -5.536,27.865 -7.855,43.282c-13.519,-0.311 -26.341,-0.467 -38.469,-0.467c-12.127,-0 -24.943,0.156 -38.448,0.467Z" style="fill:#002147;fill-rule:nonzero;"/><path d="M1015.12,520.83c1.674,-22.108 2.575,-39.805 2.703,-53.09c10.03,5.189 19.097,8.796 27.201,10.82c8.104,2.024 15.314,3.036 21.628,3.036c8.323,0 15.122,-1.323 20.397,-3.97c5.276,-2.647 8.256,-6.565 8.94,-11.755c0.233,-1.764 0.216,-3.451 -0.05,-5.06c-0.266,-1.608 -0.936,-3.425 -2.009,-5.449c-1.073,-2.024 -2.695,-4.229 -4.868,-6.617l-23.62,-25.533c-5.548,-5.812 -9.395,-10.016 -11.542,-12.611c-4.373,-5.293 -7.671,-10.223 -9.891,-14.79c-2.221,-4.567 -3.666,-9.212 -4.335,-13.935c-0.668,-4.722 -0.654,-9.73 0.044,-15.024c0.835,-6.331 2.679,-12.533 5.533,-18.605c2.853,-6.072 6.682,-11.754 11.486,-17.048c4.804,-5.293 10.849,-9.86 18.135,-13.701c7.286,-3.84 14.889,-6.461 22.808,-7.862c7.92,-1.401 15.986,-2.102 24.198,-2.102c16.138,0 33.441,2.024 51.91,6.072c-0.658,7.162 -1.189,13.727 -1.594,19.695c-0.405,5.968 -0.877,16.425 -1.415,31.372c-8.279,-3.841 -15.947,-6.513 -23.006,-8.018c-7.059,-1.505 -13.214,-2.258 -18.466,-2.258c-7.449,-0 -13.83,1.505 -19.145,4.515c-5.314,3.01 -8.266,6.747 -8.854,11.21c-0.274,2.076 -0.159,4.1 0.345,6.072c0.504,1.972 1.632,4.281 3.384,6.928c1.752,2.647 4.138,5.553 7.158,8.719c3.02,3.165 7.796,7.862 14.328,14.09l9.143,8.874c2.7,2.699 5.563,5.968 8.59,9.808c3.027,3.841 5.583,7.629 7.669,11.366c2.085,3.736 3.615,7.162 4.589,10.275c0.974,3.114 1.587,6.254 1.838,9.42c0.251,3.165 0.137,6.565 -0.342,10.197c-1.232,9.342 -4.458,18.242 -9.679,26.701c-5.222,8.459 -11.964,15.414 -20.226,20.863c-8.262,5.449 -17.048,9.263 -26.36,11.443c-9.311,2.18 -18.98,3.27 -29.006,3.27c-15.47,-0 -34.676,-2.44 -57.619,-7.318Z" style="fill:#002147;fill-rule:nonzero;"/><path d="M1325.42,307.534c15.278,0 29.69,2.232 43.234,6.695c13.544,4.463 24.969,11.599 34.275,21.407c9.307,9.809 15.744,21.096 19.313,33.863c3.569,12.767 4.258,27.453 2.069,44.06c-2.299,17.438 -7.299,33.448 -14.998,48.031c-7.7,14.583 -17.663,26.96 -29.89,37.132c-12.227,10.172 -26.196,17.619 -41.906,22.342c-15.71,4.722 -31.729,7.084 -48.058,7.084c-16.138,-0 -31.303,-2.31 -45.495,-6.929c-14.192,-4.619 -26.074,-12.092 -35.646,-22.419c-9.572,-10.328 -15.815,-21.823 -18.729,-34.486c-2.914,-12.662 -3.352,-26.726 -1.313,-42.192c2.997,-22.73 10.474,-42.685 22.431,-59.863c11.957,-17.177 28.097,-30.593 48.42,-40.246c20.323,-9.652 42.421,-14.479 66.293,-14.479Zm-8.757,46.863c-10.981,-0 -21.299,2.932 -30.952,8.797c-9.654,5.864 -17.556,14.012 -23.706,24.443c-6.149,10.431 -10.011,21.615 -11.585,33.551c-1.45,11.002 -0.605,21.07 2.535,30.204c3.141,9.134 8.813,16.27 17.016,21.408c8.203,5.137 17.27,7.706 27.201,7.706c10.6,0 20.695,-2.88 30.288,-8.641c9.592,-5.76 17.391,-13.856 23.398,-24.287c6.007,-10.432 9.763,-21.356 11.268,-32.773c1.464,-11.106 0.667,-21.356 -2.392,-30.749c-3.058,-9.393 -8.399,-16.685 -16.023,-21.874c-7.623,-5.19 -16.639,-7.785 -27.048,-7.785Z" style="fill:#002147;fill-rule:nonzero;"/><path d="M1469.3,311.582c14.862,0.208 25.346,0.312 31.453,0.312c7.636,-0 17.814,-0.104 30.534,-0.312l-12.985,66.169c-2.494,12.455 -4.672,24.132 -6.535,35.03c-1.863,10.898 -3.068,18.423 -3.615,22.575c-1.04,7.888 -1.385,14.479 -1.033,19.773c0.352,5.293 1.668,9.782 3.95,13.467c2.281,3.685 5.755,6.461 10.422,8.329c4.667,1.869 9.672,2.803 15.015,2.803c4.58,-0 8.964,-0.68 13.151,-2.039c3.295,-1.112 6.312,-2.657 9.053,-4.634c2.439,-1.855 4.633,-4.019 6.58,-6.49c2.395,-2.967 4.649,-6.674 6.762,-11.122c2.08,-4.202 3.942,-9.64 5.586,-16.314c1.756,-6.798 4.939,-22.247 9.55,-46.347c3.947,-20.517 7.379,-39.303 10.298,-56.358c2.756,-16.561 4.373,-24.842 4.85,-24.842l63.163,0l-21.537,110.54c-0.367,2.076 -0.64,3.789 -0.818,5.138c-3.228,21.589 -6.454,36.821 -9.678,45.695c-3.224,8.875 -7.655,16.581 -13.293,23.12c-5.638,6.539 -13.387,12.43 -23.248,17.671c-9.86,5.242 -20.761,8.952 -32.702,11.132c-11.941,2.18 -23.881,3.27 -35.82,3.27c-10.699,-0 -20.906,-0.831 -30.619,-2.492c-8.951,-1.66 -16.896,-4.073 -23.833,-7.239c-6.938,-3.166 -12.848,-6.876 -17.732,-11.132c-4.447,-3.944 -7.737,-7.966 -9.871,-12.066c-2.134,-4.1 -3.589,-9.004 -4.366,-14.713c-0.87,-6.435 -0.82,-13.337 0.152,-20.707c0.328,-2.491 0.92,-6.253 1.776,-11.287c0.855,-5.034 2.241,-12.274 4.158,-21.719l5.155,-24.91c1.341,-6.539 3.134,-16.14 5.38,-28.803l10.697,-61.498Z" style="fill:#002147;fill-rule:nonzero;"/><path d="M1704.23,524.1c11.393,-50.444 21.561,-105.974 30.501,-166.589l-61.188,1.712l2.995,-17.281c1.6,-9.238 3.22,-19.358 4.862,-30.36c27.082,0.209 58.666,0.314 94.751,0.314l35.388,-0.156l34.368,0l18.635,-0.158l-2.87,15.25c-1.459,8.177 -2.612,14.939 -3.46,20.285c-0.848,5.346 -1.452,9.382 -1.811,12.106c-20.267,-1.141 -37.031,-1.712 -50.292,-1.712l-10.017,-0c-3.859,18.337 -7.197,35.276 -10.014,50.816c-3.995,22.273 -7.663,43.9 -11.006,64.879c-3.343,20.979 -5.868,37.944 -7.575,50.894c-15.623,-0.208 -25.724,-0.312 -30.305,-0.312c-4.103,0 -15.09,0.104 -32.962,0.312Z" style="fill:#002147;fill-rule:nonzero;"/><path d="M1847.46,524.1l16.751,-85.007l10.728,-61.965l4.342,-27.557c1.245,-7.993 2.353,-15.673 3.325,-23.043l1.827,-14.946c14.981,0.208 26.199,0.312 33.655,0.312c5.832,-0 15.979,-0.104 30.44,-0.312c-6.19,29.789 -11.121,56.101 -14.791,78.935l77.965,0c1.597,-8.527 3.565,-20.045 5.905,-34.553c2.34,-14.509 3.859,-24.415 4.558,-29.718c0.37,-2.809 0.919,-7.697 1.647,-14.664l33.861,0.312c3.529,-0 13.555,-0.104 30.08,-0.312c-10.444,53.35 -17.854,93.025 -22.23,119.025c-4.375,26.001 -8.958,57.165 -13.747,93.493l-31.216,-0.312c-4.683,0 -15.88,0.104 -33.589,0.312c5.646,-24.703 11.06,-53.454 16.244,-86.253l-78.03,0l-13.775,86.253l-33.225,-0.312c-4.207,0 -14.448,0.104 -30.725,0.312Z" style="fill:#002147;fill-rule:nonzero;"/><path d="M783.412,571.682l-25.759,88.879l-13.007,0l-20.657,-71.537l-21.423,71.537l-12.879,0.128l-24.866,-89.007l12.369,-0l19.383,75.362l21.422,-75.362l13.007,-0l20.403,75.107l19.51,-75.107l12.497,-0Z" style="fill:#bb133e;fill-rule:nonzero;"/><path d="M807.767,581.118l0,29.712l32.39,-0l-0,9.563l-32.39,0l0,30.604l36.215,0l0,9.564l-47.819,0l0,-89.007l47.819,0l0,9.564l-36.215,0Z" style="fill:#bb133e;fill-rule:nonzero;"/><path d="M906.083,614.783c3.23,0.51 6.184,1.827 8.862,3.953c2.678,2.125 4.803,4.76 6.376,7.906c1.573,3.145 2.359,6.503 2.359,10.073c0,4.506 -1.148,8.565 -3.443,12.178c-2.295,3.613 -5.632,6.461 -10.01,8.544c-4.378,2.083 -9.542,3.124 -15.493,3.124l-33.155,0l0,-88.879l31.88,-0c6.035,-0 11.179,0.999 15.429,2.997c4.251,1.997 7.439,4.696 9.564,8.097c2.125,3.4 3.188,7.226 3.188,11.476c-0,5.271 -1.424,9.628 -4.272,13.071c-2.848,3.443 -6.61,5.929 -11.285,7.46Zm-32.9,-4.719l19.51,0c5.441,0 9.649,-1.275 12.625,-3.825c2.975,-2.55 4.463,-6.078 4.463,-10.584c-0,-4.506 -1.488,-8.034 -4.463,-10.584c-2.976,-2.55 -7.269,-3.825 -12.88,-3.825l-19.255,-0l0,28.818Zm20.531,40.933c5.78,0 10.286,-1.36 13.516,-4.08c3.231,-2.721 4.846,-6.504 4.846,-11.349c0,-4.931 -1.7,-8.82 -5.101,-11.668c-3.4,-2.848 -7.948,-4.272 -13.644,-4.272l-20.148,0l0,31.369l20.531,0Z" style="fill:#bb133e;fill-rule:nonzero;"/><path d="M1001.47,571.682c9.692,-0 18.086,1.806 25.185,5.419c7.098,3.613 12.539,8.778 16.322,15.494c3.783,6.716 5.674,14.622 5.674,23.718c0,9.096 -1.891,16.981 -5.674,23.654c-3.783,6.673 -9.224,11.774 -16.322,15.302c-7.099,3.528 -15.493,5.292 -25.185,5.292l-27.671,0l0,-88.879l27.671,-0Zm0,79.315c11.477,0 20.233,-3.039 26.269,-9.117c6.036,-6.078 9.053,-14.601 9.053,-25.567c0,-11.052 -3.039,-19.68 -9.117,-25.886c-6.078,-6.206 -14.813,-9.309 -26.205,-9.309l-16.067,0l0,69.879l16.067,0Z" style="fill:#bb133e;fill-rule:nonzero;"/><path d="M1075.55,581.118l-0,29.712l32.389,-0l-0,9.563l-32.389,0l-0,30.604l36.214,0l0,9.564l-47.819,0l0,-89.007l47.819,0l0,9.564l-36.214,0Z" style="fill:#bb133e;fill-rule:nonzero;"/><path d="M1157.55,661.454c-5.866,-0 -11.115,-1.042 -15.749,-3.124c-4.633,-2.083 -8.267,-4.974 -10.902,-8.672c-2.636,-3.698 -3.996,-7.969 -4.081,-12.815l12.369,-0c0.425,4.165 2.147,7.672 5.165,10.52c3.018,2.848 7.417,4.272 13.198,4.272c5.526,-0 9.882,-1.382 13.07,-4.144c3.188,-2.763 4.782,-6.312 4.782,-10.648c0,-3.4 -0.935,-6.163 -2.805,-8.289c-1.87,-2.125 -4.208,-3.74 -7.014,-4.845c-2.805,-1.105 -6.588,-2.296 -11.349,-3.571c-5.865,-1.53 -10.562,-3.06 -14.09,-4.59c-3.528,-1.531 -6.546,-3.932 -9.054,-7.205c-2.508,-3.273 -3.762,-7.672 -3.762,-13.198c0,-4.846 1.233,-9.139 3.698,-12.879c2.466,-3.741 5.93,-6.631 10.393,-8.671c4.463,-2.041 9.585,-3.061 15.366,-3.061c8.331,0 15.153,2.083 20.466,6.249c5.313,4.165 8.31,9.691 8.99,16.577l-12.752,-0c-0.425,-3.401 -2.21,-6.397 -5.355,-8.99c-3.146,-2.593 -7.311,-3.889 -12.497,-3.889c-4.846,-0 -8.799,1.253 -11.859,3.761c-3.06,2.508 -4.591,6.015 -4.591,10.52c0,3.231 0.914,5.866 2.742,7.906c1.828,2.041 4.081,3.592 6.758,4.655c2.678,1.062 6.44,2.274 11.286,3.634c5.865,1.615 10.584,3.209 14.154,4.782c3.57,1.573 6.631,3.995 9.181,7.268c2.551,3.273 3.826,7.715 3.826,13.326c-0,4.335 -1.148,8.416 -3.443,12.241c-2.296,3.826 -5.696,6.929 -10.202,9.309c-4.505,2.381 -9.818,3.571 -15.939,3.571Z" style="fill:#bb133e;fill-rule:nonzero;"/><rect x="1204.22" y="571.682" width="11.604" height="88.879" style="fill:#bb133e;fill-rule:nonzero;"/><path d="M1302.91,597.44c-2.465,-5.185 -6.036,-9.202 -10.711,-12.05c-4.676,-2.848 -10.117,-4.272 -16.323,-4.272c-6.205,0 -11.795,1.424 -16.768,4.272c-4.973,2.848 -8.884,6.928 -11.732,12.242c-2.848,5.313 -4.271,11.455 -4.271,18.426c-0,6.971 1.423,13.091 4.271,18.362c2.848,5.271 6.759,9.33 11.732,12.178c4.973,2.848 10.563,4.272 16.768,4.272c8.671,-0 15.812,-2.593 21.423,-7.779c5.611,-5.185 8.884,-12.199 9.819,-21.04l-35.45,0l0,-9.436l47.819,-0l0,8.926c-0.68,7.311 -2.975,14.006 -6.886,20.084c-3.91,6.078 -9.054,10.881 -15.429,14.409c-6.376,3.528 -13.475,5.292 -21.296,5.292c-8.246,0 -15.769,-1.934 -22.57,-5.802c-6.801,-3.868 -12.178,-9.245 -16.131,-16.131c-3.953,-6.886 -5.93,-14.664 -5.93,-23.335c0,-8.671 1.977,-16.471 5.93,-23.4c3.953,-6.928 9.33,-12.326 16.131,-16.194c6.801,-3.868 14.324,-5.802 22.57,-5.802c9.437,-0 17.789,2.338 25.057,7.013c7.269,4.676 12.561,11.264 15.876,19.765l-13.899,0Z" style="fill:#bb133e;fill-rule:nonzero;"/><path d="M1404.67,660.561l-11.604,0l-46.671,-70.772l0,70.772l-11.604,0l0,-89.007l11.604,0l46.671,70.645l0,-70.645l11.604,0l0,89.007Z" style="fill:#bb133e;fill-rule:nonzero;"/><path d="M1452.62,661.454c-5.866,-0 -11.116,-1.042 -15.749,-3.124c-4.633,-2.083 -8.267,-4.974 -10.902,-8.672c-2.636,-3.698 -3.996,-7.969 -4.081,-12.815l12.369,-0c0.425,4.165 2.147,7.672 5.165,10.52c3.018,2.848 7.417,4.272 13.198,4.272c5.525,-0 9.882,-1.382 13.07,-4.144c3.188,-2.763 4.782,-6.312 4.782,-10.648c-0,-3.4 -0.935,-6.163 -2.805,-8.289c-1.871,-2.125 -4.208,-3.74 -7.014,-4.845c-2.805,-1.105 -6.588,-2.296 -11.349,-3.571c-5.866,-1.53 -10.562,-3.06 -14.09,-4.59c-3.528,-1.531 -6.546,-3.932 -9.054,-7.205c-2.508,-3.273 -3.762,-7.672 -3.762,-13.198c0,-4.846 1.233,-9.139 3.698,-12.879c2.465,-3.741 5.93,-6.631 10.393,-8.671c4.463,-2.041 9.585,-3.061 15.366,-3.061c8.331,0 15.153,2.083 20.466,6.249c5.313,4.165 8.31,9.691 8.99,16.577l-12.752,-0c-0.425,-3.401 -2.21,-6.397 -5.356,-8.99c-3.145,-2.593 -7.31,-3.889 -12.496,-3.889c-4.846,-0 -8.799,1.253 -11.859,3.761c-3.061,2.508 -4.591,6.015 -4.591,10.52c0,3.231 0.914,5.866 2.742,7.906c1.828,2.041 4.08,3.592 6.758,4.655c2.678,1.062 6.44,2.274 11.285,3.634c5.866,1.615 10.584,3.209 14.155,4.782c3.57,1.573 6.631,3.995 9.181,7.268c2.55,3.273 3.825,7.715 3.825,13.326c0,4.335 -1.147,8.416 -3.442,12.241c-2.296,3.826 -5.696,6.929 -10.202,9.309c-4.505,2.381 -9.819,3.571 -15.939,3.571Z" style="fill:#bb133e;fill-rule:nonzero;"/><path d="M1601.56,660.561l-11.604,-11.731c-4.335,4.505 -8.969,7.842 -13.899,10.01c-4.931,2.167 -10.499,3.251 -16.705,3.251c-6.121,0 -11.54,-1.105 -16.258,-3.315c-4.718,-2.21 -8.374,-5.356 -10.967,-9.436c-2.593,-4.081 -3.889,-8.842 -3.889,-14.282c0,-6.206 1.764,-11.668 5.292,-16.386c3.528,-4.718 8.735,-8.438 15.621,-11.158c-2.721,-3.23 -4.676,-6.206 -5.866,-8.926c-1.19,-2.72 -1.785,-5.696 -1.785,-8.926c-0,-3.741 0.956,-7.12 2.869,-10.138c1.913,-3.018 4.654,-5.377 8.225,-7.077c3.57,-1.7 7.693,-2.55 12.369,-2.55c4.59,-0 8.586,0.892 11.986,2.677c3.401,1.786 5.951,4.272 7.651,7.46c1.701,3.188 2.466,6.737 2.296,10.648l-11.604,-0c0.085,-3.486 -0.893,-6.227 -2.933,-8.225c-2.04,-1.998 -4.676,-2.997 -7.906,-2.997c-3.401,0 -6.142,0.957 -8.225,2.87c-2.083,1.912 -3.124,4.356 -3.124,7.332c-0,2.55 0.701,5.015 2.104,7.396c1.403,2.38 3.762,5.313 7.077,8.798l26.524,26.651l2.295,-3.57l8.671,-14.537l12.497,-0l-10.457,18.107c-1.445,2.551 -3.145,5.229 -5.1,8.034l20.02,20.02l-15.175,0Zm-42.208,-8.416c4.591,-0 8.735,-0.893 12.433,-2.678c3.698,-1.785 7.205,-4.548 10.52,-8.288l-26.141,-26.269c-10.881,4.166 -16.322,10.754 -16.322,19.765c0,5.016 1.807,9.181 5.42,12.497c3.613,3.315 8.309,4.973 14.09,4.973Z" style="fill:#bb133e;fill-rule:nonzero;"/><path d="M1689.29,571.682c9.691,-0 18.086,1.806 25.184,5.419c7.099,3.613 12.539,8.778 16.322,15.494c3.783,6.716 5.675,14.622 5.675,23.718c-0,9.096 -1.892,16.981 -5.675,23.654c-3.783,6.673 -9.223,11.774 -16.322,15.302c-7.098,3.528 -15.493,5.292 -25.184,5.292l-27.671,0l-0,-88.879l27.671,-0Zm-0,79.315c11.476,0 20.232,-3.039 26.268,-9.117c6.036,-6.078 9.054,-14.601 9.054,-25.567c-0,-11.052 -3.039,-19.68 -9.118,-25.886c-6.078,-6.206 -14.813,-9.309 -26.204,-9.309l-16.067,0l-0,69.879l16.067,0Z" style="fill:#bb133e;fill-rule:nonzero;"/><path d="M1763.38,581.118l-0,29.712l32.389,-0l0,9.563l-32.389,0l-0,30.604l36.215,0l-0,9.564l-47.819,0l-0,-89.007l47.819,0l-0,9.564l-36.215,0Z" style="fill:#bb133e;fill-rule:nonzero;"/><path d="M1890.64,571.682l-33.537,88.879l-13.389,0l-33.537,-88.879l12.369,-0l27.926,76.637l27.926,-76.637l12.242,-0Z" style="fill:#bb133e;fill-rule:nonzero;"/><path d="M1915,581.118l0,29.712l32.39,-0l-0,9.563l-32.39,0l0,30.604l36.215,0l0,9.564l-47.819,0l0,-89.007l47.819,0l0,9.564l-36.215,0Z" style="fill:#bb133e;fill-rule:nonzero;"/><path d="M1980.41,651.125l31.114,-0l-0,9.436l-42.719,0l0,-88.879l11.605,-0l-0,79.443Z" style="fill:#bb133e;fill-rule:nonzero;"/><path d="M2064.19,661.454c-8.246,-0 -15.77,-1.934 -22.57,-5.802c-6.801,-3.868 -12.178,-9.267 -16.131,-16.195c-3.953,-6.928 -5.93,-14.728 -5.93,-23.399c0,-8.671 1.977,-16.471 5.93,-23.4c3.953,-6.928 9.33,-12.326 16.131,-16.194c6.8,-3.868 14.324,-5.802 22.57,-5.802c8.331,-0 15.897,1.934 22.698,5.802c6.801,3.868 12.157,9.245 16.067,16.131c3.911,6.886 5.866,14.707 5.866,23.463c-0,8.756 -1.955,16.577 -5.866,23.463c-3.91,6.886 -9.266,12.263 -16.067,16.131c-6.801,3.868 -14.367,5.802 -22.698,5.802Zm0,-10.074c6.206,-0 11.795,-1.445 16.769,-4.336c4.973,-2.89 8.883,-7.013 11.731,-12.369c2.848,-5.356 4.272,-11.561 4.272,-18.617c-0,-7.141 -1.424,-13.368 -4.272,-18.681c-2.848,-5.314 -6.737,-9.415 -11.668,-12.306c-4.93,-2.89 -10.541,-4.335 -16.832,-4.335c-6.291,-0 -11.902,1.445 -16.832,4.335c-4.931,2.891 -8.82,6.992 -11.668,12.306c-2.848,5.313 -4.272,11.54 -4.272,18.681c0,7.056 1.424,13.261 4.272,18.617c2.848,5.356 6.758,9.479 11.732,12.369c4.973,2.891 10.562,4.336 16.768,4.336Z" style="fill:#bb133e;fill-rule:nonzero;"/><path d="M2183.55,597.695c-0,7.396 -2.529,13.538 -7.588,18.426c-5.058,4.889 -12.772,7.333 -23.144,7.333l-17.087,-0l-0,37.107l-11.604,0l-0,-88.879l28.691,-0c10.032,-0 17.661,2.423 22.889,7.268c5.229,4.846 7.843,11.094 7.843,18.745Zm-30.732,16.195c6.461,-0 11.222,-1.403 14.282,-4.208c3.06,-2.805 4.591,-6.801 4.591,-11.987c-0,-10.966 -6.291,-16.449 -18.873,-16.449l-17.087,-0l-0,32.644l17.087,-0Z" style="fill:#bb133e;fill-rule:nonzero;"/><path d="M2288.11,572.319l0,88.242l-11.604,0l0,-65.799l-29.328,65.799l-8.161,0l-29.457,-65.926l0,65.926l-11.604,0l0,-88.242l12.497,0l32.644,72.94l32.644,-72.94l12.369,0Z" style="fill:#bb133e;fill-rule:nonzero;"/><path d="M2319.35,581.118l0,29.712l32.389,-0l0,9.563l-32.389,0l0,30.604l36.215,0l-0,9.564l-47.819,0l0,-89.007l47.819,0l-0,9.564l-36.215,0Z" style="fill:#bb133e;fill-rule:nonzero;"/><path d="M2443.04,660.561l-11.604,0l-46.671,-70.772l0,70.772l-11.604,0l0,-89.007l11.604,0l46.671,70.645l0,-70.645l11.604,0l0,89.007Z" style="fill:#bb133e;fill-rule:nonzero;"/><path d="M2517.51,571.682l0,9.436l-24.228,0l-0,79.443l-11.604,0l-0,-79.443l-24.356,0l0,-9.436l60.188,-0Z" style="fill:#bb133e;fill-rule:nonzero;"/></g></svg>