<?xml version="1.0" encoding="UTF-8"?> <svg xmlns="http://www.w3.org/2000/svg" id="Layer_5" height="512" viewBox="0 0 64 64" width="512"><path d="m37 22h-35v8h27z" fill="#BFDBFF"></path><path d="m39 30h23v-8h-15z" fill="#BFDBFF"></path><path d="m5 25h2v2h-2z"></path><path d="m9 25h2v2h-2z"></path><path d="m13 25h2v2h-2z"></path><path d="m61.671 8.742c.857-.856 1.329-1.996 1.329-3.207 0-2.501-2.035-4.535-4.536-4.535-1.212 0-2.351.472-3.207 1.328l-18.672 18.672h-35.585v42h62v-42h-13.586zm-5-5c.479-.478 1.116-.742 1.793-.742 1.398 0 2.536 1.138 2.536 2.535 0 .677-.264 1.313-.743 1.793l-6.257 6.258-3.586-3.586zm-7.671 7.672 3.586 3.586-1.586 1.586-3.586-3.586zm-3 3 3.586 3.586-15.586 15.586-3.586-3.586zm-19.045 19.045 2.045-2.045 3.586 3.586-2.045 2.045c-.652-1.633-1.954-2.935-3.586-3.586zm-2.369 1.541c2.434 0 4.414 1.98 4.414 4.414 0 2.167-1.551 3.998-3.688 4.354l-6.096 1.016 1.016-6.096c.357-2.137 2.188-3.688 4.354-3.688zm36.414-12v38h-58v-38h31.585l-10 10c-3.148 0-5.808 2.254-6.326 5.359l-1.477 8.857 8.857-1.477c3.106-.517 5.36-3.178 5.36-6.326l16.415-16.413z"></path><g fill="#BFDBFF"><path d="m15 59h-10v-10h10z"></path><path d="m59 59h-26v-20h26z"></path><path d="m5 33h10v13h-10z"></path></g><path d="m5 33h10v2h-10z"></path><path d="m5 37h10v2h-10z"></path><path d="m5 41h10v2h-10z"></path><path d="m5 45h10v2h-10z"></path><path d="m17 49h14v9h-14z" fill="#BFDBFF"></path><path d="m17 49h14v2h-14z"></path><path d="m29 53h2v2h-2z"></path><path d="m17 53h10v2h-10z"></path><path d="m17 57h14v2h-14z"></path></svg> 