<?xml version="1.0" encoding="UTF-8"?>
<svg xmlns="http://www.w3.org/2000/svg" id="Layer_5" height="512" viewBox="0 0 64 64" width="512">
    <path d="m42.236 16c.487-1.242.764-2.588.764-4 0-6.065-4.935-11-11-11s-11 4.935-11 11c0 1.412.277 2.758.764 4z" fill="#a8cbca"></path>
    <path d="m51 15h-16v-1c0-1.654-1.346-3-3-3-.552 0-1-.448-1-1v-1h1c.552 0 1 .448 1 1h2c0-1.302-.839-2.402-2-2.816v-2.184h-2v2h-2v3c0 1.654 1.346 3 3 3 .552 0 1 .448 1 1v1h-1c-.552 0-1-.448-1-1h-2c0 .352.072.686.184 1h-16.184c-2.206 0-4 1.794-4 4s1.794 4 4 4h.605l13.443 12.546c.604.564.952 1.363.952 2.192v4.72h2v-4.72c0-1.382-.579-2.714-1.588-3.655l-11.874-11.083h30.925l-11.874 11.083c-1.01.941-1.589 2.273-1.589 3.655v4.72h2v-4.72c0-.829.348-1.628.953-2.192l13.442-12.546h.605c2.206 0 4-1.794 4-4s-1.794-4-4-4zm0 6h-38c-1.103 0-2-.897-2-2s.897-2 2-2h19 3 16c1.103 0 2 .897 2 2s-.897 2-2 2z"></path>
    <circle cx="38" cy="12" r="1"></circle>
    <circle cx="26" cy="12" r="1"></circle>
    <path d="m22.753 24.659h1.999v2h-1.999z" transform="matrix(.659 -.753 .753 .659 -11.199 26.631)"></path>
    <path d="m25.764 27.292h1.999v2h-1.999z" transform="matrix(.659 -.753 .753 .659 -12.153 29.796)"></path>
    <path d="m28.774 29.926h1.999v2h-1.999z" transform="matrix(.659 -.753 .753 .659 -13.107 32.96)"></path>
    <path d="m32 63c-6.065 0-11-4.935-11-11s4.935-11 11-11 11 4.935 11 11-4.935 11-11 11z" fill="#a8cbca"></path>
    <path d="m32 49c.552 0 1 .448 1 1h2c0-1.302-.839-2.402-2-2.816v-2.184h-2v2h-2v3c0 1.654 1.346 3 3 3 .552 0 1 .448 1 1v1h-1c-.552 0-1-.448-1-1h-2c0 1.302.839 2.402 2 2.816v2.184h2v-2h2v-3c0-1.654-1.346-3-3-3-.552 0-1-.448-1-1v-1z"></path>
    <circle cx="38" cy="52" r="1"></circle>
    <circle cx="26" cy="52" r="1"></circle>
    <path d="m59 15h2v20h-2z"></path>
    <path d="m60 40c-1.654 0-3-1.346-3-3s1.346-3 3-3 3 1.346 3 3-1.346 3-3 3z" fill="#a8cbca"></path>
    <path d="m53 25h2v20h-2z"></path>
    <path d="m54 50c-1.654 0-3-1.346-3-3s1.346-3 3-3 3 1.346 3 3-1.346 3-3 3z" fill="#a8cbca"></path>
    <path d="m3 15h2v20h-2z"></path>
    <path d="m4 40c-1.654 0-3-1.346-3-3s1.346-3 3-3 3 1.346 3 3-1.346 3-3 3z" fill="#a8cbca"></path>
    <path d="m9 25h2v20h-2z"></path>
    <path d="m10 50c-1.654 0-3-1.346-3-3s1.346-3 3-3 3 1.346 3 3-1.346 3-3 3z" fill="#a8cbca"></path>
</svg>
