<?xml version="1.0" encoding="UTF-8"?> <svg xmlns="http://www.w3.org/2000/svg" id="Layer_5" height="512" viewBox="0 0 64 64" width="512"><g><g><path d="m9.208 51.352 3.616-.73c1.064-.304 1.855-1.16 2.098-2.203h.027c-.88-.535-1.542-1.394-1.807-2.418h-1.142c-1.105 0-2-.895-2-2s.895-2 2-2h1 .277 7.723 1c1.105 0 2 .895 2 2s-.895 2-2 2h-1.141c-.265 1.024-.927 1.884-1.807 2.418h.027c.243 1.044 1.034 1.899 2.098 2.203l3.616.73c.072.015.138.043.208.061v-10.413c0-4.411-3.589-8-8-8s-8 3.589-8 8v10.413c.069-.018.135-.046.207-.061z" fill="#f0bc5e"></path></g><g><path d="m35 54h24v5h-24z" fill="#f0bc5e"></path></g><g><path d="m52.675 18.079c-.831.126-1.608.517-2.213 1.122l-1.93 1.93c.304.901.468 1.866.468 2.869 0 4.971-4.029 9-9 9-1.002 0-1.963-.171-2.864-.473l-.005.005-.011-.011c-2.652-.896-4.746-2.99-5.642-5.642l-.011-.011.005-.005c-.301-.9-.472-1.861-.472-2.863 0-4.971 4.029-9 9-9 1.003 0 1.968.164 2.869.467l1.93-1.93c.605-.605.996-1.382 1.122-2.213-.518-.241-1.056-.456-1.608-.635l-.612-1.689h-7.402l-.612 1.69c-.711.229-1.397.512-2.052.846l-1.624-.76-5.234 5.234.76 1.624c-.333.653-.616 1.34-.846 2.052l-1.691.613v7.402l1.69.613c.229.712.513 1.399.846 2.052l-.76 1.624 5.234 5.234 1.624-.76c.653.333 1.34.616 2.052.846l.613 1.69h7.402l.612-1.69c.712-.229 1.398-.512 2.052-.846l1.624.76 5.234-5.234-.76-1.624c.333-.653.616-1.34.846-2.052l1.691-.613v-7.402l-1.69-.613c-.178-.552-.393-1.089-.635-1.607z" fill="#f0bc5e"></path></g><g><path d="m13 25h2v2h-2z"></path><path d="m5 25h2v2h-2z"></path><path d="m9 25h2v2h-2z"></path><path d="m12.626 49.642-3.616.73c-2.323.469-4.01 2.53-4.01 4.901v3.727h24v-3.727c0-2.371-1.687-4.432-4.01-4.901l-3.54-.712c-.501-.143-.914-.479-1.17-.917.548-.481.999-1.067 1.296-1.743h.424c1.654 0 3-1.346 3-3s-1.346-3-3-3h-1-7.723-1.277c-1.654 0-3 1.346-3 3s1.346 3 3 3h.424c.297.677.749 1.263 1.297 1.744-.252.436-.649.768-1.095.898zm10.374-5.642c0 .551-.448 1-1 1v-2c.552 0 1 .449 1 1zm-12 0c0-.551.448-1 1-1v2c-.552 0-1-.449-1-1zm13.594 8.332c1.394.282 2.406 1.519 2.406 2.941v1.727h-20v-1.727c0-1.422 1.012-2.659 2.406-2.941l3.692-.749c.155-.044.304-.101.45-.162l3.452 4.141 3.455-4.146c.168.072.342.134.523.185zm-10.594-9.332h6v2c0 1.654-1.346 3-3 3s-3-1.346-3-3zm3 7c.541 0 1.052-.108 1.541-.268.096.165.204.321.322.47l-1.863 2.236-1.861-2.233c.118-.15.226-.307.321-.472.489.159 1 .267 1.54.267z"></path><path d="m59 41h-24v10h24zm-2 8h-20v-6h20z"></path><path d="m35 53h24v2h-24z"></path><path d="m35 57h20v2h-20z"></path><path d="m57 57h2v2h-2z"></path><path d="m60 21h-5v2h5c.552 0 1 .449 1 1v5h-7.942c-.178.468-.37.927-.594 1.366l.296.634h8.24v29c0 .551-.448 1-1 1h-56c-.552 0-1-.449-1-1v-29h24.24l.297-.634c-.224-.439-.417-.899-.594-1.366h-23.943v-5c0-.551.448-1 1-1h21v-2h-21c-1.654 0-3 1.346-3 3v36c0 1.654 1.346 3 3 3h56c1.654 0 3-1.346 3-3v-36c0-1.654-1.346-3-3-3z"></path><path d="m40 34c5.514 0 10-4.486 10-10 0-.877-.119-1.742-.342-2.58l1.512-1.512c.602-.602 1.408-.913 2.254-.871 2.561.152 5.081-.802 6.896-2.617 2.296-2.296 3.209-5.649 2.384-8.751l-.447-1.677-5.121 5.121-3.718-.531-.531-3.718 5.12-5.12-1.676-.447c-3.099-.826-6.453.086-8.752 2.383-1.814 1.814-2.768 4.329-2.616 6.897.049.83-.269 1.651-.87 2.253l-1.512 1.512c-.839-.224-1.704-.342-2.581-.342-5.514 0-10 4.486-10 10s4.486 10 10 10zm8-10c0 4.411-3.589 8-8 8-.295 0-.586-.019-.872-.05l8.804-8.804c.03.284.068.566.068.854zm-2.493-9.756c1.006-1.006 1.535-2.386 1.452-3.786-.117-1.999.624-3.954 2.034-5.365 1.331-1.331 3.114-2.068 4.932-2.096l-3.159 3.159.885 6.193 6.192.885 3.159-3.159c-.028 1.818-.766 3.601-2.096 4.931-1.41 1.411-3.369 2.148-5.364 2.035-1.397-.09-2.781.446-3.786 1.453l-12.874 12.873c-1.908-.811-3.439-2.341-4.25-4.25zm-5.507 1.756c.288 0 .57.039.854.069l-8.804 8.804c-.031-.287-.05-.578-.05-.873 0-4.411 3.589-8 8-8z"></path></g></g></svg> 